<?xml version="1.0" encoding="UTF-8" standalone="no"?>
<!-- Generator: Adobe Illustrator 13.0.1, SVG Export Plug-In  -->

<svg
   xmlns:dc="http://purl.org/dc/elements/1.1/"
   xmlns:cc="http://creativecommons.org/ns#"
   xmlns:rdf="http://www.w3.org/1999/02/22-rdf-syntax-ns#"
   xmlns:svg="http://www.w3.org/2000/svg"
   xmlns="http://www.w3.org/2000/svg"
   xmlns:sodipodi="http://sodipodi.sourceforge.net/DTD/sodipodi-0.dtd"
   xmlns:inkscape="http://www.inkscape.org/namespaces/inkscape"
   version="1.1"
   x="0px"
   y="0px"
   width="529.9035"
   height="249.62308"
   viewBox="0 0 529.9035 249.62308"
   enable-background="new 0 0 530 250"
   xml:space="preserve"
   id="svg2"
   inkscape:version="0.48.2 r9819"
   sodipodi:docname="AJAX.svg"><metadata
   id="metadata10"><rdf:RDF><cc:Work
       rdf:about=""><dc:format>image/svg+xml</dc:format><dc:type
         rdf:resource="http://purl.org/dc/dcmitype/StillImage" /></cc:Work></rdf:RDF></metadata><sodipodi:namedview
   pagecolor="#ffffff"
   bordercolor="#666666"
   borderopacity="1"
   objecttolerance="10"
   gridtolerance="10"
   guidetolerance="10"
   inkscape:pageopacity="0"
   inkscape:pageshadow="2"
   inkscape:window-width="1280"
   inkscape:window-height="1004"
   id="namedview8"
   showgrid="false"
   fit-margin-top="0"
   fit-margin-left="0"
   fit-margin-right="0"
   fit-margin-bottom="0"
   inkscape:zoom="1.2150943"
   inkscape:cx="264.23588"
   inkscape:cy="-39.896511"
   inkscape:window-x="-8"
   inkscape:window-y="-8"
   inkscape:window-maximized="1"
   inkscape:current-layer="svg2" />
<defs
   id="defs4">
</defs>
<path
   d="m 209.62188,55.2 c -0.8,-0.3 -1.8,-0.6 -2.3,0.2 -0.5,0.7 0.3,1.5 1.4,2.1 -0.7,-0.1 -1.1,-0.3 -1.4,0.3 -0.5,0.9 1.2,2.2 2.1,2.6 -0.7,-0.4 -1.5,-0.5 -1.7,0.2 -0.3,1.1 3.9,3.6 6.5,5.1 1.2,1.1 4.8,2.4 6.7,2.8 0.5,0.1 2.6,0.1 4.5,0.7 0.2,-1.4 0.4,-2.6 0.6,-4.2 0.1,-1 0.2,-2 0.3,-2.9 -0.9,-1 -1.8,-2 -2.4,-3 0,-0.1 -0.1,-0.1 -0.1,-0.2 l 0,0 c -0.1,-0.1 -0.1,-0.1 -0.2,-0.2 0,0 0,0 -0.1,-0.1 -0.1,-0.1 -0.6,-0.6 -0.6,-0.6 -0.2,-0.2 -1.7,-1.6 -3.1,-1.9 -1.3,-0.3 -2.5,0 -2.5,0 -0.9,-0.3 -3.2,-1.4 -4.7,-2.1 0,0 -2.5,-1.1 -3.1,-0.5 -0.5,0.5 -0.6,1.1 0.1,1.7 z m 58.9,155.8 c 0.1,0 0.2,0 0.4,0 1.1,-0.1 2,-0.8 2.9,-1.9 0,-0.1 0.1,-0.1 0.1,-0.2 l -2.5,-29.5 c -1.2,0.2 -2.4,0.2 -3.6,0.3 0,2 0,4 0,6 0,9.3 0.1,19.1 0.1,23.9 0.7,0.8 1.6,1.3 2.6,1.4 l 0,0 z m -9.2,-150.8 c 0.5,0.2 1.1,0.3 1.5,0.3 0.4,0 0.7,-0.1 0.8,-0.4 0.6,-1 10.3,-16.4 15.4,-19.8 -0.7,-1.4 -1.2,-3 -1.9,-5.1 -0.1,-0.3 -0.2,-0.5 -0.2,-0.8 -0.4,2 -1.8,3.8 -5.4,4.2 -1.2,-0.1 -3.7,-2.3 -5.9,-3.2 -0.2,0.7 -0.5,1.4 -0.5,2.1 0.3,0.1 0.6,0.3 0.9,0.4 0,0.3 0.1,0.6 0.1,0.9 l 0,0 c -0.3,0 -0.7,0 -1,0 -2.7,10.5 -5.4,17.3 -5.7,19.3 -0.1,0.7 -0.1,1 0.1,1.1 0.5,0.5 0.9,0.6 1.8,1 z m 7,165.7 c 0.5,0.5 1.1,0.8 1.7,1 0.7,0 1.4,0 2.1,-0.1 0.9,-0.3 1.7,-0.9 2.4,-1.7 l -1,-12 c -0.7,0.4 -1.4,0.6 -2.2,0.7 -0.3,0 -0.6,0.1 -0.8,0.1 h -0.1 l 0,0 c -0.7,0 -1.4,-0.2 -2.1,-0.4 v 0.1 c 0,1.1 0,2.2 0,3.3 0,0.5 0,0.9 0,1.4 0,2 0,4.1 0,6.1 0,0.6 0,1.1 0,1.5 z m -49.5,-128.7 c 0.2,0 0.5,0 0.7,0 0.1,0 0.3,0 0.4,0 0.2,0 0.3,0 0.5,0 0.1,0 0.3,0 0.4,0 0.1,0 0.3,0 0.4,-0.1 0.1,0 0.3,0 0.4,-0.1 0.1,0 0.3,-0.1 0.4,-0.1 0.1,0 0.3,-0.1 0.4,-0.1 0.1,0 0.3,-0.1 0.4,-0.1 0.1,0 0.3,-0.1 0.4,-0.1 0.1,0 0.3,-0.1 0.4,-0.1 0.1,0 0.2,-0.1 0.4,-0.1 0.1,-0.1 0.2,-0.1 0.4,-0.2 0.1,-0.1 0.2,-0.1 0.4,-0.2 0.1,-0.1 0.2,-0.1 0.4,-0.2 0.1,-0.1 0.2,-0.1 0.3,-0.2 0.1,-0.1 0.2,-0.1 0.3,-0.2 0.1,-0.1 0.2,-0.1 0.3,-0.2 0.1,-0.1 0.2,-0.2 0.3,-0.2 0.1,-0.1 0.2,-0.2 0.3,-0.2 0.1,-0.1 0.2,-0.2 0.3,-0.3 0.1,-0.1 0.2,-0.2 0.3,-0.3 0.1,-0.1 0.2,-0.2 0.3,-0.3 0.1,-0.1 0.2,-0.2 0.3,-0.3 0.1,-0.1 0.2,-0.2 0.3,-0.3 0.1,-0.1 0.2,-0.2 0.3,-0.3 0.1,-0.1 0.2,-0.2 0.3,-0.3 0.1,-0.1 0.2,-0.2 0.2,-0.3 0.1,-0.1 0.2,-0.3 0.3,-0.4 0,-0.1 0.1,-0.1 0.1,-0.2 0,0 -1.6,-0.2 -2.7,-0.2 -1.1,0 -1.9,0.2 -2.1,0.3 l 0,0 c -0.1,0.1 -0.1,0.1 -0.2,0.2 -0.1,0.1 -0.2,0.2 -0.4,0.3 -0.1,0.1 -0.2,0.1 -0.3,0.2 -0.1,0.1 -0.3,0.1 -0.4,0.2 -0.1,0.1 -0.2,0.1 -0.3,0.2 -0.1,0.1 -0.3,0.1 -0.4,0.2 -0.1,0 -0.2,0.1 -0.3,0.1 -0.1,0.1 -0.3,0.1 -0.4,0.1 -0.1,0 -0.2,0.1 -0.3,0.1 -0.1,0 -0.3,0.1 -0.4,0.1 -0.1,0 -0.2,0.1 -0.4,0.1 -0.1,0 -0.3,0 -0.4,0.1 -0.1,0 -0.2,0 -0.4,0 -0.1,0 -0.3,0 -0.5,0 -0.1,0 -0.2,0 -0.2,0 -0.1,0 -0.2,0 -0.3,0 0,0 0,0 -0.1,0 -4.7,-0.2 -8.3,-4.1 -8.1,-8.8 l 0,0 c 0,-0.3 0,-0.6 0.1,-0.9 0,-0.1 0,-0.1 0,-0.2 0,-0.2 0.1,-0.4 0.1,-0.6 0,-0.1 0,-0.2 0.1,-0.2 0.1,-0.2 0.1,-0.4 0.2,-0.6 0,-0.1 0.1,-0.2 0.1,-0.2 0.1,-0.2 0.1,-0.3 0.2,-0.5 0,-0.1 0.1,-0.2 0.1,-0.3 0.1,-0.2 0.2,-0.3 0.2,-0.5 0,-0.1 0.1,-0.2 0.2,-0.2 0.1,-0.1 0.2,-0.3 0.3,-0.4 0.1,-0.1 0.1,-0.2 0.2,-0.2 0.1,-0.1 0.2,-0.3 0.3,-0.4 0.1,-0.1 0.1,-0.1 0.2,-0.2 0.1,-0.1 0.2,-0.2 0.4,-0.4 0.1,-0.1 0.2,-0.1 0.2,-0.2 0.1,-0.1 0.3,-0.2 0.4,-0.3 0.1,-0.1 0.2,-0.1 0.2,-0.2 0.1,-0.1 0.3,-0.2 0.4,-0.3 0.1,-0.1 0.2,-0.1 0.3,-0.2 0.1,-0.1 0.3,-0.2 0.4,-0.2 0.1,0 0.2,-0.1 0.3,-0.1 0.2,-0.1 0.3,-0.1 0.5,-0.2 0.1,0 0.2,-0.1 0.3,-0.1 0.2,-0.1 0.3,-0.1 0.5,-0.2 0.1,0 0.2,-0.1 0.3,-0.1 0.2,0 0.3,-0.1 0.5,-0.1 0.1,0 0.2,0 0.3,0 0.2,0 0.3,0 0.5,-0.1 0.1,0 0.2,0 0.3,0 0.1,0 0.2,0 0.3,0 0.1,0 0.2,0 0.3,0 2.7,0.1 5,1.4 6.5,3.4 1.3,0.1 3.1,0.4 4.5,1 -1.6,-4.5 -5.8,-7.8 -10.8,-8 -0.3,0 -0.6,0 -0.9,0 -0.2,0 -0.3,0 -0.5,0 -0.2,0 -0.5,0 -0.7,0.1 -0.2,0 -0.3,0 -0.5,0.1 -0.2,0 -0.5,0.1 -0.7,0.1 -0.2,0 -0.3,0.1 -0.5,0.1 -0.2,0.1 -0.4,0.1 -0.7,0.2 -0.1,0.1 -0.3,0.1 -0.4,0.2 -0.2,0.1 -0.4,0.2 -0.6,0.3 -0.1,0.1 -0.3,0.1 -0.4,0.2 -0.2,0.1 -0.4,0.2 -0.6,0.3 -0.1,0.1 -0.3,0.2 -0.4,0.2 -0.2,0.1 -0.4,0.2 -0.5,0.4 -0.1,0.1 -0.3,0.2 -0.4,0.3 -0.2,0.1 -0.3,0.3 -0.5,0.4 -0.1,0.1 -0.2,0.2 -0.4,0.3 -0.2,0.2 -0.3,0.3 -0.5,0.5 -0.1,0.1 -0.2,0.2 -0.3,0.3 -0.1,0.2 -0.3,0.3 -0.4,0.5 -0.1,0.1 -0.2,0.2 -0.3,0.4 -0.1,0.2 -0.2,0.4 -0.4,0.6 -0.1,0.1 -0.2,0.3 -0.3,0.4 -0.1,0.2 -0.2,0.4 -0.3,0.6 -0.1,0.1 -0.2,0.3 -0.2,0.4 -0.1,0.2 -0.2,0.4 -0.3,0.6 -0.1,0.1 -0.1,0.3 -0.2,0.4 -0.1,0.2 -0.1,0.5 -0.2,0.7 0,0.1 -0.1,0.3 -0.1,0.4 -0.1,0.3 -0.1,0.5 -0.2,0.8 0,0.1 0,0.2 -0.1,0.4 -0.1,0.4 -0.1,0.8 -0.1,1.2 0,6.7 5.1,12.3 11.7,12.5 z m 88.8,121.6 c 0.4,0 0.9,-0.1 1.3,-0.2 l 0,0 0,0 c 0.8,-0.3 1.5,-0.9 2.1,-1.6 l -3.9,-12.5 c -0.7,0.7 -1.5,1.3 -2.4,1.7 l 0,0 0,0 h -0.1 -0.1 c -0.7,0.2 -1.4,0.4 -2.1,0.4 l 0,0 0,0 h -0.1 l 3.8,11.8 c 0.3,0.2 0.9,0.4 1.5,0.4 z m -9.8,-10 c -0.4,0.1 -0.8,0.1 -1.2,0.1 h -0.1 -0.1 c -0.4,0 -0.9,-0.1 -1.3,-0.2 l 3.1,11.5 c 0.9,0.7 1.9,1.2 2.8,1.2 0.2,0 0.4,0 0.6,-0.1 1.1,-0.2 2,-0.9 2.7,-1.9 l -3.8,-12 c -0.7,0.7 -1.7,1.2 -2.7,1.4 z m -88.4,-82.3 h 23.9 c -1.8,4.3 -2.9,9.1 -2.9,14.1 0,19.9 16.2,36.1 36.1,36.1 19.9,0 36.1,-16.2 36.1,-36.1 0,-5 -1,-9.8 -2.9,-14.1 h 22 c 43,0 50.2,-22.8 50.2,-22.8 h -84 c -0.5,0 -1,0 -1.5,0 -0.1,0 -0.2,0 -0.3,0 -0.4,0 -0.7,0 -1.1,0.1 0.7,-8.8 1.4,-17.5 1.8,-25.2 -1.7,7.3 -3.9,14.7 -5.2,20.9 -3.1,14.8 -14.5,48.8 -14.5,48.8 -0.8,2.8 -1.7,4.3 -3.3,4.4 -2,-0.1 -3.6,-2.6 -5.5,-6.3 -1.8,-3.8 -3.8,-8.9 -5.8,-14.6 -1.2,-3.3 -2.4,-6.8 -3.5,-10.4 -0.1,0.9 -0.2,1.8 -0.3,2.7 -1.2,13 -2,24.6 -2.9,31.9 4.5,6.5 12.1,10.8 20.7,10.8 8.4,0 15.8,-4.1 20.4,-10.3 -0.1,-0.7 -0.2,-1.5 -0.3,-2.2 0,-0.1 0,-0.3 -0.1,-0.4 -0.2,-1.7 -0.5,-3.3 -0.7,-4.9 0,-0.2 0,-0.3 -0.1,-0.5 -0.2,-1.6 -0.4,-3.2 -0.5,-4.7 0,-0.1 0,-0.3 0,-0.4 -0.2,-1.6 -0.3,-3.1 -0.4,-4.6 v -0.1 c 0,-0.3 0,-0.6 -0.1,-0.9 0,-0.1 0,-0.1 0,-0.2 -0.6,-7.3 -0.7,-14 -0.5,-20.3 l 0,0 0,0 c 5.6,4.3 9.6,10.5 10.9,17.7 0,0.1 0,0.2 0.1,0.2 0.1,0.5 0.2,1.1 0.2,1.6 0,0 0,0 0,0.1 0.1,0.5 0.1,0.9 0.1,1.4 0,0.1 0,0.2 0,0.4 0,0.6 0.1,1.2 0.1,1.8 0,0.5 0,1 0,1.4 0,0.2 0,0.3 0,0.5 0,0.3 0,0.6 -0.1,0.9 0,0.2 0,0.4 -0.1,0.5 0,0.3 -0.1,0.6 -0.1,0.8 0,0.2 -0.1,0.4 -0.1,0.5 -1.6,14.3 -13.9,25.4 -28.7,25.4 -15.1,0 -27.6,-11.6 -28.8,-26.4 -0.2,-1.2 -0.3,-2.5 -0.3,-3.8 0,-8.9 4,-16.9 10.4,-22.2 -1.7,-5.2 -3.5,-10.3 -5.1,-14.6 h -83.5 c 0,0.2 7.2,23 50.2,23 z m 50.9,-50.9 c 0,0 9.5,-29.4 20.1,-29.4 0.4,0 0.8,0 1.2,0.1 0.5,0.1 2.4,1 2.8,1.1 l 0.2,-1.2 c -1.1,-0.8 -3.9,-2.6 -4.6,-4.2 -4.6,3.2 -12.7,15.4 -15.4,19.9 -0.2,0.4 -0.8,1 -2,1 -0.7,0 -1.4,-0.2 -2.1,-0.5 -1,2.5 -2,9.1 -2.8,12 -6,-2.3 -24.1,-11.3 -27.9,-12.8 -0.3,3.2 -0.7,7 -1.3,9.3 0,3 9,8.8 9.3,12.4 l 22.5,-7.7 z m 36.9,-67.6 -2.3,1.2 -0.9,-2.5 -2.7,1.3 -1.5,-2.5 -2.5,1.3 -1.2,-2.2 -2.3,1.1 -1.2,-2 -2.3,1.1 -1.3,-2.4 -2.3,1.1 -1.2,-2.2 -2.5,1.2 -1.5,-2.5 0,0 -2.6,13.3 22.4,6.4 5.9,-11.7 z m -6.3,12.6 -22.1,-6.4 -0.6,1.9 22,6.5 0.7,-2 z m -24,2.8 0,0 c 0,0 6,1.7 9.7,6.1 0,0 0,0 -0.1,0 0,0 0.1,0.4 0.3,1.1 0.3,0.9 0.7,2.6 1.3,4.4 0.6,2 2.2,5.4 2.2,5.3 0.4,1.3 1.6,2.6 1.6,2.6 l 0,0 c 1.2,1.2 2.7,1.7 4.9,2.4 0,0 0,0 0.1,0 0.1,0 0.2,0 0.3,0.1 h 0.1 c 0.1,0 0.2,0 0.2,0 0.1,0 0.1,0 0.2,0 0.1,0 0.1,0 0.2,0 0.1,0 0.1,0 0.2,0 0.1,0 0.1,0 0.2,-0.1 0.1,0 0.1,0 0.2,-0.1 0.1,-0.1 0.1,-0.1 0.2,-0.1 0.1,0 0.1,-0.1 0.2,-0.1 0.1,0 0.1,-0.1 0.2,-0.1 0.1,0 0.1,-0.1 0.2,-0.1 0.1,0 0.1,-0.1 0.2,-0.1 0.1,0 0.1,-0.1 0.2,-0.1 0.1,0 0.1,-0.1 0.2,-0.2 0.1,-0.1 0.1,-0.1 0.2,-0.2 0.1,-0.1 0.1,-0.1 0.2,-0.2 0.1,-0.1 0.1,-0.1 0.2,-0.2 0.1,-0.1 0.1,-0.1 0.2,-0.2 0.1,-0.1 0.1,-0.1 0.2,-0.2 0.1,-0.1 0.1,-0.1 0.2,-0.2 0.1,-0.1 0.1,-0.1 0.2,-0.2 0.1,-0.1 0.1,-0.1 0.2,-0.2 0.1,-0.1 0.1,-0.2 0.2,-0.2 0.1,-0.1 0.1,-0.2 0.2,-0.2 0.1,-0.1 0.1,-0.2 0.2,-0.3 0.1,-0.1 0.1,-0.2 0.2,-0.2 0.1,-0.2 0.2,-0.3 0.3,-0.5 0.1,-0.1 0.1,-0.2 0.2,-0.3 0.1,-0.1 0.1,-0.2 0.2,-0.3 0,-0.1 0.1,-0.2 0.1,-0.3 0,-0.1 0.1,-0.2 0.1,-0.3 0,-0.1 0.1,-0.2 0.1,-0.3 0,-0.1 0.1,-0.2 0.1,-0.3 0,-0.1 0.1,-0.2 0.1,-0.3 0,-0.1 0.1,-0.2 0.1,-0.3 0,-0.1 0.1,-0.2 0.1,-0.3 0,-0.1 0.1,-0.2 0.1,-0.3 0,-0.1 0.1,-0.2 0.1,-0.3 0,-0.1 0.1,-0.2 0.1,-0.3 0,-0.1 0.1,-0.2 0.1,-0.3 0,-0.1 0.1,-0.2 0.1,-0.3 0,-0.1 0.1,-0.2 0.1,-0.3 0,-0.1 0,-0.2 0.1,-0.3 0,-0.1 0,-0.2 0.1,-0.3 0,-0.1 0,-0.2 0,-0.3 0,-0.1 0,-0.2 0,-0.3 0,-0.1 0,-0.2 0,-0.3 0,-0.1 0,-0.2 0,-0.3 0,-0.1 0,-0.2 0,-0.3 0,-0.1 0,-0.2 0,-0.3 0,-0.1 0,-0.2 0,-0.2 0,-0.1 0,-0.2 0,-0.3 0,-0.1 0,-0.1 0,-0.2 -0.1,-0.8 -0.3,-1.4 -0.8,-2 -2.9,-3.7 -2.6,-5 -4.3,-8.1 -0.1,-0.2 -0.2,-0.3 -0.3,-0.5 l -21,-5.7 0,0 c 0,0 -0.1,0 -0.3,0 -0.5,0.4 -2.1,-0.1 -2.4,3.9 0,0.5 0.3,1 0.8,1.4 0.3,0.4 0.5,0.5 0.7,0.6 z m 183.6,98.9 c 2.4,-0.2 5.3,-1.2 6.4,-3.7 1,-2.2 -0.5,-3.6 -2.5,-4.4 l -81.8,-5.3 c -0.4,0.6 -0.8,1.2 -1.3,1.9 l 79.2,11.5 z m -170.5,-23 c 0.8,-3.7 1.8,-7.8 2.9,-12 3.5,-13.6 7.5,-29.1 3.3,-36 -1.1,-1.8 -2.8,-2.9 -5.1,-3.4 -0.3,-0.1 -0.6,-0.1 -0.9,-0.1 -7.7,0 -16.1,20.5 -18.6,28.4 -0.1,0.5 -0.5,0.8 -1,1 l -23.3,8 c -0.2,0.6 -0.8,5.3 11.7,26.5 4.3,7.3 7.1,11.2 9.2,14.1 2.8,3.9 4.5,6.3 6.9,12.7 0.7,1.8 1.1,3.7 1.4,5.5 3.9,-11 10.8,-31.9 13.5,-44.7 z m -43.6,-14.2 -0.3,-0.3 c -1.6,-0.3 -3.7,-1.8 -5.2,-2.5 -1.2,-0.6 -5.1,-1.5 -6.6,-1 -1,0.4 -2.2,0.6 -2.4,3 -0.1,1.8 0.2,3.2 0.2,4.3 0,0.4 1.3,1.9 1.9,2.5 5.3,-1.7 11.1,2.8 14.1,2.2 -1.3,-2 -3,-7.7 -1.7,-8.2 z m 11.5,27.3 c -0.9,-1.4 -1.6,-2.8 -2.4,-4.1 4.5,12.8 9.5,29.2 13.7,37.8 1.8,3.7 3.6,5.9 4.5,5.7 0.5,0.1 1.3,-0.7 2,-2.8 -0.1,-2.5 -0.6,-6.6 -1.9,-10.1 -4,-11 -5.9,-9.6 -15.9,-26.5 z m 16.1,-78.3 0,0 c 1.7,0.1 3.6,1.3 5.3,2.4 0.8,0.5 1.8,1.2 2.3,1.3 1.8,-0.2 3,-0.9 3.7,-2 1,-1.6 0.8,-3.7 0.5,-4.9 -0.1,-0.4 -0.2,-0.7 -0.2,-0.7 l 0,0 0,0 0,0 0,0 c 0,-0.1 -0.1,-0.2 -0.1,-0.2 -2.2,-3.1 -5.1,-3.9 -7.1,-4.5 -0.6,-0.2 -1.2,-0.4 -1.7,-0.6 0,0.7 0,1.4 0,2.1 0,0 0,0.9 -0.6,2.2 -0.6,1.2 -2.9,4.4 -3.1,4.8 l 0,0 0.8,0.2 c 0,-0.1 0.1,-0.1 0.2,-0.1 z m 4.8,-6.3 0.1,0.1 3.2,1.9 -0.4,0.7 -1.7,-1.2 c 0,0 -0.8,1 -1.2,0.7 -0.2,-0.2 -1.2,-1.3 0,-2.2 z m 10.5,198.3 c 0.1,0 0.2,0 0.2,0 0.9,-0.1 1.6,-0.5 2.2,-1.2 l -1.9,-12.2 c -0.4,0.2 -0.9,0.3 -1.5,0.4 h -0.1 -0.1 -0.1 -0.1 -0.1 -0.1 c -0.8,0 -1.6,-0.2 -2.4,-0.6 l 0,0 1,12.1 c 0.8,1 1.9,1.5 3,1.5 z m -25.3,0.2 c 1,0.1 2,0.2 3,0.3 0.9,-0.4 1.6,-1.3 2.1,-2.2 l 0.6,-11.1 c -0.6,0.3 -1.4,0.5 -2.3,0.6 h -0.1 -0.1 c -0.4,0 -0.9,-0.1 -1.3,-0.2 l 0,0 h -0.1 0.1 c -0.5,-0.1 -0.9,-0.3 -1.3,-0.5 l -0.6,4.8 -0.9,7.6 c 0.3,0.2 0.6,0.5 0.9,0.7 z m 7.7,-46.9 c -1.2,-0.1 -2.3,-0.3 -3.4,-0.6 l -3.5,30.4 c 0.5,0.7 1.1,1.3 2,1.5 0.2,0 0.5,0.1 0.7,0.1 1.3,-0.1 2.1,-1 2.7,-2 l 1.5,-29.4 z m 2,47.5 c 1.2,-0.2 2.2,-0.9 2.9,-1.8 0,-2.2 0,-4.5 0,-6.7 0,-1.4 0,-2.9 0,-4.3 0,-0.3 0,-0.6 0,-0.9 -0.9,0.5 -1.9,0.7 -2.9,0.7 h -0.1 l 0,0 c -0.7,0 -1.3,-0.2 -2,-0.4 l -0.6,10.9 -0.1,1.7 c 0.4,0.3 0.9,0.6 1.4,0.7 0.4,0.1 0.9,0.1 1.4,0.1 z m -10.1,-18.8 3.4,-29.6 c -1.4,-0.3 -2.7,-0.8 -4,-1.2 l -5.3,29.9 c 0.5,1.1 1.1,2.1 2.4,2.4 l 0,0 c 0.2,0 0.4,0.1 0.5,0.1 l 0,0 c 1.3,-0.1 2.3,-0.6 3,-1.6 z m -6.6,17.3 c 0.5,0.1 1,0.2 1.4,0.2 1.3,-0.1 2.4,-0.8 3.2,-1.9 l 1.4,-11.5 c -0.7,0.3 -1.4,0.4 -2.1,0.5 h -0.1 -0.1 c -0.4,0 -0.8,0 -1.1,-0.1 l 0,0 0,0 c -1,-0.2 -1.9,-0.7 -2.5,-1.2 l -2.1,11.7 c 0.4,1 0.9,1.9 2,2.3 z M 44.721875,140 l 36.1,-7.8 c -1.6,-0.8 -2.6,-2 -3.3,-3.1 l -36.9,6.1 c -1.3,1.2 -0.9,2.6 -0.3,3.3 0.6,0.5 2,1.4 4.4,1.5 z m 193.700005,83.9 c 0.2,0 0.4,0.1 0.6,0.1 0.7,0 1.4,-0.2 2,-0.6 l 2.2,-12.2 c -0.3,0 -0.5,0.1 -0.8,0.1 -0.4,0 -0.7,0 -1.1,-0.1 h -0.1 -0.1 c -1.1,-0.3 -2,-0.9 -2.6,-1.6 -0.1,0.1 -0.3,0.1 -0.5,0.1 l -1.5,6.9 -1,4.6 c 0.1,0.1 0.1,0.2 0.2,0.4 0.8,1.1 1.5,2 2.7,2.3 z m 26.1,-38.2 c 0,-2 0,-4 0,-6 l 0,0 c -1.2,0 -2.4,-0.1 -3.5,-0.2 l -1.7,30.2 c 0.6,0.7 1.4,1.1 2.2,1.1 l 0,0 0,0 c 1.3,0 2.3,-0.7 3,-1.6 0.1,-4.9 0,-14.4 0,-23.5 z M 71.921875,119.8 c -0.3,-0.6 -0.4,-1.2 -0.5,-1.8 l -39.1,3.4 c -1.1,1 -1.4,2.3 -1,3.1 0.5,1.3 2.1,2.7 4.6,2.9 l 38.7,-4.3 c -1.2,-0.8 -2.1,-1.9 -2.7,-3.3 z m -31.8,14.3 36.9,-6.1 c 0,-0.1 -0.1,-0.2 -0.1,-0.3 -0.4,-1.1 -0.4,-2.2 0,-3.3 -0.3,-0.1 -0.6,-0.3 -0.9,-0.4 l -39.9,4.5 c -1.3,1.2 -1.4,2.9 -0.8,3.7 1,1.2 2.5,1.8 4.8,1.9 z m 234.900005,44.1 4.7,29.9 c 0.6,0.6 1.4,1.1 2.3,1.1 0.1,0 0.1,0 0.2,0 1.3,0 2.2,-0.7 2.9,-1.6 l -6.2,-30.6 c -1.4,0.5 -2.6,0.9 -3.9,1.2 z m -33,30 c 0.2,0 0.3,0 0.5,0 0.7,0 1.3,-0.3 2,-0.8 l 5.4,-30.6 c -1.2,-0.5 -2.4,-1 -3.5,-1.6 l -6.9,30.4 c 0.1,0.1 0.1,0.3 0.2,0.4 0.6,1.1 1.2,1.9 2.3,2.2 z m 215.4,-99.4 c 0.2,-1.1 -0.4,-2.2 -1.3,-5.1 h -83.1 l -0.3,0.9 c -0.1,0.2 -0.5,1.5 -1.5,3.3 l 80.5,5.2 c 2.6,-0.6 5.3,-1.9 5.7,-4.3 z m -181.6,101.3 c 0.1,0 0.1,0 0.2,0 1,-0.1 1.8,-0.7 2.5,-1.7 l -4.7,-29.9 c -1,0.3 -2.1,0.5 -3.1,0.6 l 2.5,29.7 c 0.7,0.8 1.6,1.3 2.6,1.3 z m 12.7,-2.4 c 0.1,0 0.3,0 0.4,0 1.1,-0.2 1.9,-1 2.4,-1.9 l -8.2,-30.9 c -1.1,0.6 -2.1,1.1 -3.2,1.6 l 6.1,30 c 0.7,0.7 1.5,1.1 2.5,1.2 z m 3.5,15.7 c 0.2,0 0.3,0 0.5,0 1,-0.2 1.8,-0.8 2.4,-1.5 l -2.1,-7.7 -1.2,-4.4 c -0.7,0.4 -1.4,0.7 -2.2,0.9 l 0,0 0,0 c -0.3,0 -0.6,0.1 -0.8,0.1 h -0.1 c -0.5,0 -1,-0.1 -1.6,-0.3 -0.1,0 -0.1,0 -0.2,0.1 l 2.3,11.4 c 0.8,0.8 1.8,1.4 3,1.4 z m -10.7,0 c 0.8,1 1.8,1.7 3.1,1.7 0.1,0 0.2,0 0.2,0 1.2,0 2.2,-0.6 2.9,-1.3 l -2.4,-11.8 -0.1,-0.5 c -0.9,0.5 -1.8,0.7 -2.8,0.7 -0.1,0 -0.1,0 -0.2,0 h -0.1 -0.1 c -0.6,0 -1.4,-0.1 -2.2,-0.5 -0.1,0 -0.1,0 -0.2,0 l 0.7,4.8 1.2,6.9 z m -47.9,-19.1 c 0,0 0,0.1 0,0 0.4,0.9 0.7,1.5 1.2,1.9 0.6,0.2 1.3,0.5 2,0.7 0.6,-0.1 1,-0.3 1.4,-0.6 l 7.2,-31.7 c -1.3,-0.7 -2.5,-1.5 -3.7,-2.4 l -8.1,32.1 z m -3.1,17.8 c 0.6,0.2 1.1,0.3 1.7,0.5 0.6,0 1.1,-0.2 1.5,-0.5 l 2.6,-12.1 c -0.7,0 -1.3,-0.1 -1.9,-0.4 l 0,0 0,0 c -1.2,-0.5 -2,-1.3 -2.6,-2.1 -0.1,0 -0.2,0 -0.4,0.1 l -2.9,11.8 c 0.1,0.2 0.1,0.3 0.2,0.4 0.6,0.9 1,1.7 1.8,2.3 z m -5.4,-2.2 0,0 c 0.6,0 1.1,-0.1 1.6,-0.3 l 2.9,-12 c -0.6,-0.1 -1.2,-0.2 -1.8,-0.5 h -0.1 -0.1 c -1.2,-0.6 -1.9,-1.4 -2.4,-2.2 l -3.8,12.2 c 0,0.1 0.1,0.2 0.1,0.3 0.5,1 0.8,1.8 1.9,2.3 l 0,0 c 0.6,0.1 1.1,0.2 1.7,0.2 z m 59.4,-45.6 8.1,30.7 c 0.7,0.6 1.5,0.9 2.2,0.9 0.2,0 0.4,0 0.5,-0.1 1,-0.2 1.9,-0.9 2.5,-2 l -10.1,-31.8 c -0.9,0.9 -2.1,1.6 -3.2,2.3 z m 34.1,-16.2 c -1.6,0 -3.3,-0.5 -4.8,-1.4 -0.7,0.5 -1.6,0.8 -2.8,1 l 1.4,5.1 c 0.9,0.8 2.1,1.5 3.5,1.7 l 0.4,-0.1 0.1,0.2 c 0.3,0 0.6,0.1 0.9,0.1 1.3,0 3.1,-0.4 3.5,-1.6 l -1.5,-5 c -0.3,0 -0.5,0 -0.7,0 z m -11,-28.6 6.1,23.5 c 1.2,1 3.1,2 4.8,2 1.7,0 2.8,-0.5 3.1,-1.5 l -9.1,-24.1 -4.9,0.1 0,0 z m 20.1,-0.2 13.3,23.6 c 2,1.4 4.6,2.4 6.8,2.4 1.5,0 3,-1.7 2.2,-3 l -0.2,-0.2 c 0,-0.1 -0.1,-0.1 -0.1,-0.2 0,0 0.1,0 0.1,0.1 l -17.6,-23.2 c -1.5,0.2 -3,0.4 -4.5,0.5 z m 16,-2.6 30.3,27.3 c 1.7,0.9 3.5,1.4 5.3,1.4 0.4,0 0.9,0 1.3,-0.1 1.6,-0.3 2.3,-1.3 2.1,-2.3 l -35.9,-27.2 c -1,0.3 -2,0.6 -3.1,0.9 z m -23.1,2.8 11.2,23.7 c 1.9,1.4 4.4,2 6.2,2 0.9,0 2.1,-0.3 2.4,-1 l -14,-24.9 c -1.8,0.1 -3.8,0.2 -5.8,0.2 z m 18.5,-1.7 23.8,26.4 c 1.7,1 3.7,1.7 6,1.7 0.1,0 0.1,0 0.2,0 1.7,0 2.9,-1 2.7,-2.2 l -29.4,-26.7 c -1.1,0.3 -2.1,0.5 -3.3,0.8 z m -12,36.8 c 1.9,0 3.5,-0.7 3.8,-1.8 l -2.5,-5 c -0.2,0 -0.4,0 -0.6,0 -1.7,0 -3.3,-0.4 -4.8,-1.1 -0.6,0.5 -1.5,0.9 -2.6,1.1 l 1.5,5 c 1.6,1.3 4,1.8 5.2,1.8 z m 11.8,-6.4 c -0.3,0 -0.6,0.1 -0.9,0.1 -1.9,0 -4.2,-0.5 -6.2,-1.5 -0.7,0.5 -1.5,0.7 -2.3,0.9 l 2.7,5.5 c 1.6,0.9 3.8,1.4 4.9,1.4 1.7,0 4.8,-0.9 3.6,-2.7 l 0.1,0.1 -1.9,-3.8 z m -138.8,6.4 c 1.3,0 3.8,-0.5 5.4,-1.8 l 1.8,-5.7 c -0.1,-0.1 -0.2,-0.2 -0.4,-0.3 -1.5,0.7 -3.2,1.1 -4.8,1.1 -0.9,0 -2,-0.2 -3,-0.6 l -2.8,5.5 c 0.3,1.1 1.9,1.8 3.8,1.8 z m 113.6,-35.1 8.9,23.6 c 1.3,1 3.2,1.7 5.1,1.7 1.1,0 2.5,-0.4 2.9,-1.3 l -11.3,-24.1 -5.6,0.1 0,0 z m 34.4,-4.1 36.8,27.9 c 2,0.9 4.3,1.5 6.7,1.5 0.2,0 0.4,0 0.6,0 1.8,-0.1 2.3,-1.2 1.9,-2.3 l -43.5,-28 c -0.9,0.3 -1.7,0.6 -2.5,0.9 z m -14.6,3.3 19.2,25.2 c 1.5,0.8 3.3,1.5 5.1,1.5 2.3,0 3.1,-1.2 2.9,-2.3 l -22.8,-25.1 c -1.4,0.3 -2.9,0.5 -4.4,0.7 z m 30.5,-12.1 72.2,21.4 c 0.7,0.1 1.4,0.1 2,0.1 2.2,0 4,-0.6 5.4,-2.4 1.4,-1.9 -0.2,-3.9 -2.2,-5 l -75.2,-16.1 c -0.7,0.7 -1.4,1.4 -2.2,2 z m -56.5,48.5 c 1.3,0 3.2,-0.5 3.9,-1.6 l -1.5,-5.7 c -2.3,0 -6.3,-0.9 -9,-2.4 -0.2,0.5 -0.4,1 -0.7,1.5 l 1.6,6.3 c 1.6,1.2 4.3,1.9 5.7,1.9 z m -12,-0.5 c 0.8,0.2 1.5,0.3 2.1,0.3 1,0 2.7,-0.4 3.2,-1.4 l -1.3,-5.1 c -1.2,2.2 -2.5,4.3 -4,6.2 z m 56.2,-40.6 45.3,29.1 c 1.3,0.5 2.6,0.7 3.8,0.7 0.8,0 1.6,-0.1 2.3,-0.4 1.2,-0.5 1.8,-1.4 1.4,-2.4 l -51.1,-27.8 c -0.5,0.3 -1,0.6 -1.7,0.8 z m 106.1,-9.4 c 0.4,0.7 0.6,1.4 0.7,2.2 l 35.9,3.4 c 3.3,-0.3 4.5,-2.1 4.9,-3.1 0.4,-1 0.3,-2.7 -1.3,-3.8 l -38.1,-1.9 c -0.6,1.1 -1.4,1.9 -2.4,2.6 0,0.2 0.1,0.4 0.3,0.6 z m 2.8,-5.3 c -0.1,0.4 -0.2,0.7 -0.3,1.1 l 36.9,1.8 c 2.9,-0.9 3.2,-3.6 3.4,-4.7 0,-2.1 -1.2,-3.2 -2.3,-3.7 h -38.9 c 0.1,0.2 0.1,0.4 0.2,0.5 0.7,2 1.2,3.4 1,5 z m -10.6,17.4 c 0.4,-1.2 -0.5,-2.4 -2,-3.4 l -79.3,-11.5 c -0.5,0.6 -1,1.2 -1.6,1.8 l 77.6,16.6 c 2.3,-0.1 4.4,-1 5.3,-3.5 z m -95.2,-4.1 52.4,28.6 c 1.5,0.4 3,0.7 4.2,0.7 0.4,0 0.8,0 1.1,-0.1 2.8,-0.8 2.9,-2.2 1.8,-3.5 l -57.1,-27 c -0.8,0.5 -1.6,0.9 -2.4,1.3 z m 3.5,-1.9 60.1,28.4 c 0.5,0.1 1.1,0.1 1.6,0.1 0.6,0 1.2,-0.1 1.8,-0.2 3.1,-0.6 5.4,-1.9 4.7,-3.4 l -66.5,-26 c -0.5,0.4 -1.1,0.8 -1.7,1.1 z m 2.8,-1.8 65.6,25.7 c 3.8,-0.2 6.3,-0.5 6.7,-0.7 4.5,-2.1 2.8,-4.1 0.2,-5.5 l -70.7,-20.9 c -0.5,0.5 -1.1,0.9 -1.8,1.4 z m 10.2,45.7 c 1.6,0 3.9,-0.5 3.6,-1.8 l -4.7,-4.1 c -0.3,0 -0.6,0.1 -0.9,0.1 -0.1,0 -0.2,0 -0.2,0 -2.4,0 -4.8,-0.6 -7,-1.8 -0.4,0.4 -0.9,0.6 -1.5,0.9 l 4.1,5.2 c 2.2,1.1 5.2,1.5 6.6,1.5 z m 65.1,-1.9 c 1,0 2,-0.1 2.8,-0.3 2.4,-0.9 2.6,-2.2 0.9,-3.6 l -15.4,-7.4 c -0.7,0.2 -1.4,0.4 -2.2,0.6 -0.8,0.2 -1.6,0.2 -2.4,0.2 -0.9,0 -1.8,-0.1 -2.7,-0.3 -0.3,0.5 -0.7,1 -1.4,1.5 l 14.3,8.3 c 1.9,0.7 4.1,1 6.1,1 z m -134.2,-33.2 c 1.1,3.6 1.6,7.3 1.6,11.1 0,2 -0.4,4.5 -0.8,6.8 l 1.5,6.3 c 1.8,0.6 3.9,1.1 5.3,1.1 1.6,0 2.5,-0.5 2.8,-1.3 l -6.2,-23.9 -4.2,-0.1 0,0 z m 98.8,33.6 -7.8,-5.4 c -0.3,0.1 -0.6,0.1 -1,0.1 -0.2,0 -0.5,0 -0.7,0 -2.6,0 -4.9,-0.6 -7,-1.4 -0.7,0.8 -1.8,1.4 -3.1,1.8 l 5.7,3.8 c 3.5,2.2 6.9,2.7 10.6,2.7 1.6,0 3.6,-0.5 3.3,-1.6 z m 22.2,1.1 c 0.3,0 0.5,0 0.8,0 2.9,-0.2 4,-1.6 2.9,-3 l -12.2,-7.1 c -0.5,0.2 -1,0.4 -1.6,0.6 -0.1,0 -0.1,0 -0.2,0 -0.5,0.1 -1.1,0.1 -1.6,0.1 -1.4,0 -3,-0.3 -4.5,-0.7 -0.4,0.6 -1,1.1 -1.6,1.5 l 11.3,7.3 c 2.1,0.8 4.5,1.3 6.7,1.3 z m -12.8,1 c 0.5,0 0.9,0 1.4,0 1.7,-0.1 3,-1.1 2.4,-2.3 l -10.1,-6.5 c -1,0.3 -2,0.5 -3.2,0.5 -1.5,0 -3,-0.3 -4.7,-0.8 -0.4,0.5 -1,0.9 -1.6,1.3 l 10,7 c 1.6,0.4 3.5,0.8 5.8,0.8 z m 37.7,-4.9 c 1.2,0 2.2,-0.2 3,-0.5 1.4,-0.9 0.9,-2.7 -1.3,-4 l -19.1,-8.4 c -0.4,0 -0.8,0.1 -1.2,0.1 -0.4,1.4 -1.6,2.6 -3.5,3.5 l 18.8,9 c 1.2,0.1 2.3,0.3 3.3,0.3 z m 43.6,-28.1 c 0.6,-0.8 0.5,-2.5 -0.9,-3.8 l -36.2,-4.9 c -0.6,0.4 -1.2,0.7 -1.8,0.9 0.3,0.9 0.4,1.8 0.2,2.7 l 34.3,7 c 2.1,-0.1 3.5,-0.8 4.4,-1.9 z m -5,6.2 c 0.7,-0.7 1,-2.2 -0.5,-3.4 l -33.5,-6.8 c -0.7,1.5 -1.8,3.1 -3.9,4.1 l 32,8.2 c -0.4,-0.3 -0.9,-0.6 -1.6,-0.8 1.1,0.3 2.1,0.4 2.9,0.4 2.4,0 4,-1 4.6,-1.7 z m -15.9,11.2 c 0.7,-0.7 1.2,-1.5 0.9,-2.4 l -26.9,-8.5 c -1.4,1.4 -3.3,2.2 -5.6,2.4 v 0.1 c 0,0.5 -0.1,0.9 -0.2,1.4 l 23.4,9 c 0.6,0.1 1.3,0.1 1.9,0.1 2.7,-0.1 5,-0.7 6.5,-2.1 z m 9.8,-5.1 c 0.7,-0.5 1.3,-1.6 1,-2.6 l -34.7,-8.9 c 0.3,1.5 0,3.1 -0.9,4.4 -0.1,0.1 -0.2,0.3 -0.3,0.4 l 24.8,7.9 c 1.4,0.3 2.7,0.4 3.9,0.4 3,0 5.2,-0.9 6.2,-1.6 z m -24,12.2 c 2.2,0 4.2,-0.4 5.2,-1.3 1.1,-1 1,-2 0,-3 l -23.1,-8.9 c -0.7,1.2 -2,2.2 -3.9,3.1 -0.3,0.1 -0.6,0.3 -1.9,0.5 l 21.8,9.6 c 0.6,0 1.3,0 1.9,0 z m -132,18 c 1.1,0 2.5,-0.4 3.3,-1.2 l -1.8,-6 c -1.2,-0.1 -2.8,-0.5 -4.3,-1.2 -1.7,1.2 -3.8,1.3 -4.5,1.3 h -0.1 l 1.2,4.2 c 1.8,1.8 4.9,2.9 6.2,2.9 z m -10.4,0 c 1.2,0 2.5,-0.3 3.1,-1.2 l -1.6,-6 c -1.1,-0.2 -2.2,-0.5 -3.1,-1 -1.5,1.1 -3.5,1.5 -5,1.5 -1.3,0 -3.6,-0.4 -5.6,-1.4 -0.2,0.1 -0.4,0.2 -0.6,0.4 4.3,1.9 8.8,4.8 12.8,7.7 -0.2,-0.1 -0.1,0 0,0 z m 22.4,-0.3 c 1.4,0 2.8,-0.6 2.9,-2 l -2.5,-5 c -1.2,0 -3.3,-0.4 -5.2,-1.2 -1.1,0.8 -2.6,1.2 -4.3,1.3 l 1.2,3.9 c 1.6,1.7 4.9,3 7.9,3 z m -34.7,-21.9 c 0.4,0.2 0.8,0.5 1.3,0.7 l -0.8,-3.2 c -0.3,1.6 -0.5,2.7 -0.5,2.5 z m 82.6,12.2 c 1.4,0 2.8,-0.3 3.1,-1 l -7.7,-5.2 c -0.2,0 -0.4,0 -0.6,0 -1.9,0 -3.8,-0.5 -5.7,-1.3 -0.6,0.6 -1.3,1 -2.1,1.3 l 6,5.1 c 2.6,0.9 5.6,1.1 7,1.1 z m 111.3,-40.3 c 0.4,-0.8 0.1,-2.1 -1.1,-3.1 l -36.4,-3.4 c -0.1,0.6 -0.2,1.3 -0.5,1.9 -0.5,1.1 -1.2,2 -2,2.7 l 35.6,4.8 c 2.4,-0.3 4,-1.6 4.4,-2.9 z m -136.6,39.9 c 1.7,0 3.5,-0.6 3.6,-1.7 l -3.5,-4.4 c -0.5,0.1 -1,0.2 -1.6,0.2 -2.3,0 -4.5,-0.8 -6.2,-1.7 -0.7,0.7 -1.7,1.2 -2.7,1.4 l 3.5,4.6 c 1.9,1.2 5.5,1.6 6.9,1.6 z m -7.9,-1.1 -3.8,-5 c -1.7,0 -3.6,-0.5 -5.4,-1.3 -0.6,0.5 -1.3,0.8 -2,1 l 2.9,5.4 c 1.2,0.6 2.6,1 4.4,1 1.7,0 3.4,-0.3 3.9,-1.1 z m -3,11.5 c 1.3,0 2.7,-0.6 3.1,-1.6 l -3.2,-5.8 c -0.3,0 -0.7,0 -1,0 -2.2,0 -3.9,-0.5 -5.3,-1.1 -1.1,0.7 -2.5,1.1 -3.4,1.2 l 2.4,4.7 c 2,1.4 4.7,2.6 7.4,2.6 z m -305.700005,-32 c -2.3,-0.5 -3.6,-1.6 -4.2,-2.2 -0.4,-0.4 -0.7,-0.9 -1,-1.4 l -16.2,3.2 c -0.9,1.1 -0.6,2.7 0.6,3.7 1.1,1 3.3,1.7 5.7,1.8 l 15.3,-3.8 c -0.1,-0.4 -0.2,-0.8 -0.2,-1.3 z m 191.900005,82.8 c -0.7,0.3 -1.5,0.5 -2.3,0.5 h -0.1 -0.1 c -0.8,0 -1.6,-0.2 -2.4,-0.5 l 0,0 0,0 c -0.8,-0.3 -1.4,-0.7 -1.9,-1.2 l -3.4,13.8 c 0.4,2.9 1.9,5.5 2.8,5.8 2.2,1 4.5,-3.2 5,-6.8 0,0.2 -0.1,0.5 -0.1,0.7 l 2.5,-12.3 z m 7,1.5 c -0.8,0.3 -1.5,0.4 -2.3,0.4 -0.4,0 -0.8,0 -1.3,-0.1 h -0.1 -0.1 c -0.9,-0.2 -1.6,-0.6 -2.2,-1.1 l -3.1,15.2 c 0.7,2.4 2.1,4.3 3,4.5 1,0.2 3,-0.6 4.1,-3.6 l 2.5,-14.8 c -0.2,-0.3 -0.3,-0.4 -0.5,-0.5 z m -63.3,-55.2 2.5,-4.5 c -0.3,0 -0.5,0 -0.8,0 -2.3,0 -4,-0.4 -5.2,-1.2 -1.6,0.6 -3.3,0.9 -4.6,1 l -3.9,5 c -0.2,1.3 1.2,2.4 3.8,2.4 2.8,0 5.7,-1 8.2,-2.7 z m 71.2,56.6 c -0.9,0.4 -1.8,0.6 -2.8,0.6 h -0.1 -0.1 c -0.4,0 -0.9,0 -1.3,-0.1 h -0.1 -0.1 c -0.8,-0.2 -1.5,-0.5 -2.1,-0.9 l -2.5,14.7 c 0.5,2.6 1.8,5 3,5.1 1.9,0.4 3.9,-1.6 4.7,-5.6 l 1.4,-13.8 0,0 z m -14.6,-55.5 0,0 c 0.2,0 0.3,0 0.5,-0.1 l -0.2,0.6 v 0.1 l -8.3,26.5 c 0.1,0.8 0.3,1.6 0.6,2.3 0.4,0.9 0.7,1.6 1.6,2 l 0,0 c 0.4,0.2 0.9,0.3 1.3,0.3 v -0.1 l 0.2,0.1 c 0.7,0 1.3,-0.3 1.8,-0.6 l 8.3,-32.5 c -2,-1.6 -3.9,-3.4 -5.6,-5.3 -1.5,0.5 -3.5,1.3 -4.7,1.6 -4.9,2.3 -10.2,5.8 -14.5,9.1 -4.9,5.3 -9.3,12.2 -12,20.5 -2.7,8.3 -6.4,24.4 -20.7,23.3 8.4,-7.6 -2.8,-19.4 -11.1,-11.9 -6.5,5.9 -5.2,16.8 6,18.6 4.5,0.8 22.9,3.8 30.3,-21 6.9,-22.4 18.2,-30.6 26.5,-33.5 z m -8.1,50.2 c -0.5,0.1 -1.1,0.2 -1.6,0.2 -1,0 -2,-0.2 -3,-0.6 h -0.1 -0.1 c -0.8,-0.4 -1.4,-0.8 -1.9,-1.3 l -3.3,10.6 c -0.8,3.9 0.8,8.1 1.9,8.5 1.6,0.7 3.4,0.2 4.7,-2.6 l 3.6,-14.5 c 0,-0.1 -0.1,-0.2 -0.2,-0.3 z m 27.5,7.1 h -0.1 -0.1 c -0.5,0 -1,-0.1 -1.5,-0.2 l 0,0 c -0.1,0 -0.1,0 -0.2,0 h 0.1 c -0.8,-0.2 -1.4,-0.5 -2,-0.8 l -1.7,15.5 c 0.7,2.7 2.1,4.4 3.1,4.5 1.6,0.5 3.1,-1.9 4,-4.9 l 1.2,-15 c -0.7,0.6 -1.7,0.9 -2.8,0.9 z m 15.9,0.2 c -0.3,0.1 -0.6,0.1 -0.9,0.1 h -0.1 -0.1 c -1,0 -1.9,-0.3 -2.8,-0.7 l -0.6,16.5 c 1.1,2.4 3,3.5 3.9,3.3 1.3,0 3.7,-1.9 4.5,-5.6 l -1.1,-14.5 c -1,0.4 -1.9,0.7 -2.8,0.9 z m 8.1,-0.9 0,0 h -0.2 -0.1 -0.1 -0.2 -0.2 c -1.2,-0.1 -2.3,-0.4 -3.3,-0.9 -0.1,0.1 -0.2,0.1 -0.3,0.2 l 1.3,16.6 c 0.9,2 2.4,3.1 3.7,3 0.9,-0.1 2.8,-1.7 3.5,-4.8 l -1.8,-14.9 c -0.7,0.4 -1.4,0.7 -2.3,0.8 z m -17,0.8 0,0 h -0.1 c -1.1,0 -2.1,-0.3 -3,-0.8 l -1.3,15.4 c 0.6,2.9 2.2,4.5 3.5,4.5 2.5,0.1 3.9,-2.7 4.4,-5.8 l 0.6,-14.4 0,0 c -1.3,0.7 -2.7,1.1 -4.1,1.1 z M 97.521875,164.7 c -2.3,0.6 -4.7,0.9 -6.8,0.9 -1.3,0 -2.5,-0.1 -3.5,-0.4 h -0.1 -0.1 c -0.1,0 -0.2,-0.1 -0.3,-0.1 l -7.8,4.4 c -0.1,1.5 2.2,2.6 5.2,2.6 2.9,0.2 7,-0.5 10.6,-2 l 5.500005,-3.5 c -1.200005,-0.4 -2.100005,-1.1 -2.700005,-1.9 z m -14,-2.1 c -1.7,0.4 -3.2,0.6 -4.6,0.6 -1.6,0 -3.1,-0.3 -4.2,-0.8 l -0.2,-0.1 -0.2,-0.1 c -0.1,0 -0.1,-0.1 -0.2,-0.2 l -7.3,3.7 c -0.5,1.3 1.4,2.4 3.4,2.9 1.7,0.5 4.9,0.6 7.7,-0.2 l 7.2,-4.1 c -0.8,-0.5 -1.3,-1.1 -1.6,-1.7 z m 84.400005,4.6 c -1,0 -3.1,-0.1 -4.7,-1.3 -2.2,1 -4.6,1.4 -6.2,1.5 l -3.9,4.8 c -0.2,1.5 2.7,2.1 4.7,2.1 2,0 4,-0.6 5.9,-1.5 l 4.3,-5.6 c -0.1,0 -0.1,0 -0.1,0 z M 61.621875,154.5 c -3.1,-0.2 -5.6,-1.1 -7.4,-2.8 -0.4,-0.4 -0.8,-0.8 -1.1,-1.2 l -13.3,4.6 c -1.6,1.7 0.4,3.7 2.9,4.8 1.1,0.5 4,1.1 6.9,1.1 l 12.2,-5.3 c 0,-0.3 -0.2,-0.7 -0.2,-1.2 z m 223.200005,74 c -0.1,0 -0.2,0 -0.3,0 h -0.1 -0.1 c -0.8,0 -1.7,-0.2 -2.7,-0.6 -0.1,0.1 -0.3,0.2 -0.4,0.3 l 1.9,16.1 c 0.8,1.9 2.2,3.1 3.4,3 2.2,0 3.4,-2.4 3.8,-5.3 l -1.9,-14.4 c -1.1,0.5 -2.3,0.9 -3.6,0.9 z M 52.421875,149 c -3.1,0 -5.9,-0.9 -7.7,-2.2 -0.6,-0.4 -1,-1 -1.4,-1.5 l -14.5,3.6 c -0.6,1.2 0,2.8 1.3,4 1.3,1.2 3.9,1.8 6.3,2 l 16,-5.6 c 0.1,-0.1 0,-0.2 0,-0.3 z m 20,10.6 c -0.7,0.1 -1.3,0.1 -1.9,0.1 -3.2,0 -5.6,-0.7 -7.1,-2 -0.2,-0.2 -0.4,-0.4 -0.6,-0.6 l -10.1,4.3 c -1.6,1.4 0.7,3.2 3.2,3.9 2.1,0.7 5.3,0.7 8.2,0.3 l 9,-4.6 c -0.4,-0.4 -0.6,-0.9 -0.7,-1.4 z m 70.100005,8 c -2,0 -3.6,-0.5 -4.7,-1.3 -2.2,0.8 -4.3,1.2 -6.2,1.3 l -6.3,4.2 c 0.1,1.2 2.5,2.3 4.9,2.3 1.1,0 3.5,-0.2 6,-1.1 l 6.3,-5.4 0,0 z m 8.4,-1.4 c -2.1,0.8 -4.4,1.1 -6,1.3 l -5.7,4.8 c 0,1.4 2.9,1.9 6.1,1.9 1.6,0 3.7,-0.5 5.7,-1.4 l 4.2,-5.2 c -1.2,-0.1 -3,-0.4 -4.3,-1.4 z m -40.2,-0.1 c -2.3,0.7 -4.7,1.1 -6.9,1.1 -0.3,0 -0.7,0 -1,0 -0.3,0 -0.5,0 -0.8,-0.1 l -7.200005,4.5 c 0.5,1 2.3,1.6 4.2,1.7 1.700005,0.1 5.600005,-0.4 9.000005,-1.6 l 5.6,-3.9 c -1.2,-0.2 -2.2,-0.8 -2.9,-1.7 z m 14.1,0.4 c -2.2,0.9 -4.8,1.6 -8.1,1.6 -0.3,0 -0.5,0 -0.8,0 l -5.8,3.9 c 0.2,1.1 2,1.9 4.2,1.9 1.1,0 4.1,-0.3 6.9,-1.1 l 7.8,-5.2 c -0.9,0.1 -2.8,-0.1 -4.2,-1.1 z m 404.2,-62.8 h -26.7 c 0.6,1 1,2.2 1,3.7 v 0.2 0.2 0.1 c -0.3,2.1 -1,3.6 -2,4.7 l 25.2,1.5 c 1.8,-1.1 3,-3 3.3,-5.3 0.4,-3.7 -0.8,-5.1 -0.8,-5.1 z m -45,40.7 c -0.4,1 -1,1.8 -1.9,2.5 -1.4,1.1 -3.6,1.8 -6,2.1 l 16.2,6 c 2.7,0 5.9,-0.6 7.4,-2 1.5,-1.3 2,-3 1.2,-4.3 l -16.9,-4.3 z m -188,81 c -0.9,0.7 -1.9,1.1 -3,1.3 l 0,0 0,0 c -0.3,0 -0.7,0.1 -1,0.1 h -0.1 c -0.6,0 -1.3,-0.1 -2.1,-0.3 l 0,0 c -0.2,0.2 -0.3,0.3 -0.5,0.4 l 2.1,15.4 c 1,1.8 2.5,3 3.8,2.8 1.9,-0.3 3.6,-4 3.3,-7.4 l -2.5,-12.3 z m 158,-64.8 c -0.4,0.6 -0.9,1.2 -1.5,1.6 l -0.2,0.1 -0.2,0.1 c -1.2,0.5 -2.6,0.8 -4.2,0.8 -1.4,0 -3,-0.2 -4.6,-0.6 0,0.1 -0.1,0.1 -0.1,0.2 l 10.1,5.9 c 2.4,0.4 4.9,0.4 6.4,-0.1 2.4,-0.5 4.6,-2 2.9,-3.6 l -8.6,-4.4 z m 22.9,0.4 -12,-5.2 c -0.3,0.7 -0.7,1.3 -1.3,1.8 -1.5,1.4 -3.9,2 -7.1,2 -0.4,0 -0.8,0 -1.2,-0.1 l 11.8,6.1 c 2.5,0.2 5.2,0.2 7,-0.5 2.6,-0.7 5,-2.7 2.8,-4.1 z m -34.7,2.9 c -0.6,0.5 -1.3,0.9 -2.3,1.3 h -0.1 -0.1 c -1,0.3 -2.2,0.4 -3.5,0.4 -2.1,0 -4.6,-0.4 -6.8,-0.9 0,0 0,0.1 -0.1,0.1 l 10.6,6.8 c 2.2,0.5 4.3,0.7 6,0.5 3.4,0 5.8,-1.3 5.1,-3.1 l -8.8,-5.1 z m 47.7,-25.9 c -0.2,1 -0.6,1.9 -1.3,2.6 -0.6,0.6 -1.9,1.7 -4.2,2.2 0,0.1 0,0.2 0,0.3 l 18.8,4.7 c 2.1,-0.2 4,-0.9 5,-1.8 1.2,-1 1.5,-2.5 0.6,-3.6 l -18.9,-4.4 z M 36.821875,136.6 c -1.5,-0.5 -2.8,-1.3 -3.8,-2.4 V 134 l -0.1,-0.1 c -0.5,-0.7 -0.8,-1.5 -0.9,-2.3 l -17.4,2.6 c -1.4,1.1 -2.2,3.2 -0.8,4.8 1.1,1.2 2.7,2.1 4.6,2.4 l 18.4,-3.7 c 0,-0.4 0,-0.8 0,-1.1 z m 154.900005,21.6 c -1,0 -1.9,-0.2 -2.7,-0.5 l -2.9,5.4 c 0.5,1 2.5,1.4 3.7,1.4 1.2,0 3.3,-0.5 4.9,-1.4 l 3.2,-6.4 0,0 c -2,1 -4.3,1.5 -6.2,1.5 z m 330.9,-42.7 c 0.1,0 0.1,0 0.2,0 l -20.9,-1.3 c 0.4,1.4 0.3,2.9 -0.1,3.9 -0.3,0.8 -1.1,2.6 -3.4,3.9 0.1,0.2 0.1,0.3 0.1,0.5 l 24.2,1.9 c 1.9,-0.8 3.4,-2.1 4,-3.4 1,-2.4 -1,-5.2 -4.1,-5.5 z m -2.1,10.1 -21.7,-1.7 c 0,0.6 -0.2,1.2 -0.4,1.8 -0.6,1.4 -1.8,2.9 -3.7,3.8 0.1,0.2 0.1,0.5 0.1,0.7 l 22.4,3.4 c 1.7,-0.3 3.4,-1 4.9,-2.5 1.3,-2 0.3,-4.4 -1.6,-5.5 z m -46.3,24.1 c -0.3,0.7 -0.8,1.5 -1.5,2.1 -1.8,1.6 -4.2,2.6 -7.2,2.8 l 15,6.5 c 2.8,-0.1 5.6,-0.6 6.7,-1.1 2.2,-1 4.1,-2.7 3.3,-4.3 l -16.3,-6 z m -117.4,59.1 c -8.3,-7.5 -19.4,4.3 -11.1,11.9 -14.3,1 -18,-15 -20.7,-23.3 -2.8,-8.6 -7.3,-15.7 -12.5,-21.1 -4.6,-3.4 -9.9,-6.7 -14.6,-8.4 -0.2,0 -0.3,0 -0.5,0 -0.6,0 -3,-0.1 -4.5,-0.4 -1.3,1.4 -2.7,2.6 -4.2,3.8 l 10.1,31.9 c 0.5,0.3 1,0.4 1.6,0.4 0.4,0 0.8,-0.1 1.1,-0.2 l 0,0 0,0 c 1.2,-0.5 2,-1.4 2.5,-2.7 l -8.4,-27.2 c 0.7,0.3 1.3,0.6 2,0.9 0.1,0 0.2,0.1 0.2,0.1 7.7,4 16.9,12.7 22.6,32 7.4,24.8 25.8,21.8 30.3,21 11.3,-2 12.6,-12.8 6.1,-18.7 z m 6.7,-37.7 -3,-4 c -0.6,0.1 -1.1,0.1 -1.5,0.1 -0.2,0 -3.6,0 -6.6,-1.1 -0.7,0.5 -1.6,0.8 -2.7,1 l 2.7,5 c 2.4,1.6 5.2,2.5 7.8,2.5 3.5,0 4.9,-2 2.9,-3.8 0,0 0.2,0.2 0.4,0.3 z m -53.3,49.5 c -0.6,0.4 -1.2,0.8 -1.8,1 l 0,0 0,0 0,0 -0.1,0.1 h -0.1 c -0.8,0.3 -1.6,0.4 -2.4,0.4 h -0.1 -0.1 c -0.1,0 -0.3,0 -0.4,0 v 0.1 l -0.8,0.3 h -0.1 c -0.1,0.1 -0.2,0.2 -0.3,0.3 l 4.1,15.7 c 0.9,0.8 1.9,1.1 3.1,0.7 2.1,-0.9 3.3,-3.3 2.6,-7.5 l -3.6,-11.1 z m 118,-54.8 c -1.1,0.8 -2.5,1.2 -4.2,1.3 -0.3,0 -0.6,0 -1,0 -2.2,0 -4.6,-0.4 -6.9,-1.1 -0.1,0.1 -0.2,0.3 -0.3,0.4 l 8.8,6.1 c 2.5,0.6 5,0.8 6.2,0.8 2.9,-0.2 5.8,-1.6 3.6,-3.6 l -6.2,-3.9 z m -125.1,57.7 c -0.8,0.5 -1.7,0.9 -2.7,1.1 -0.5,0.1 -0.9,0.2 -1.3,0.2 h -0.1 -0.1 c -0.4,0 -0.8,-0.1 -1.3,-0.2 -0.1,0 -0.1,0 -0.2,0.1 l 0,0 -0.5,0.1 3.2,16.4 c 1,1.1 2.2,1.6 2.9,1.4 1.8,-0.4 3.5,-2.5 3.2,-6.7 l -3.1,-12.4 z m 73.1,-52.5 -3,-3.7 c -0.9,0.2 -1.7,0.2 -2.1,0.2 -1.2,0 -4.5,-0.3 -7.4,-1.6 -0.5,0.4 -1.1,0.6 -1.7,0.8 l 4.8,6.4 c 1.7,0.8 3.5,1.3 5.3,1.3 2.6,0 6.7,-1 3.7,-3.7 0.1,0.1 0.3,0.2 0.4,0.3 z m 22.8,-3.4 c -0.6,0.1 -1.1,0.1 -1.4,0.1 -2.6,0 -5.5,-0.2 -8.6,-1.4 -0.4,0.4 -1,0.6 -1.6,0.8 l 7.2,6.2 c 2.1,0.6 4.1,0.8 5.1,0.8 2.8,0 5.5,-1.4 4.8,-2.8 l -5.5,-3.7 z m 15.6,-0.3 c -0.8,0.4 -1.8,0.7 -2.9,0.8 -0.5,0 -1,0 -1.6,0 -3.3,0 -6,-0.7 -8.1,-1.6 -0.4,0.3 -0.8,0.5 -1.2,0.6 l 9,6 c 2.4,0.6 4.8,0.8 5.8,0.8 3.1,0 5.5,-1.7 3.5,-3.4 0.3,0.1 0.5,0.3 0.8,0.4 l -5.3,-3.6 z m -28.9,0.2 c -0.4,0.1 -0.9,0.1 -1.4,0.1 -1,0 -4.8,-0.1 -8.3,-1.4 -0.4,0.3 -0.8,0.5 -1.3,0.7 l 4.9,6.1 c 1.8,0.8 3.6,1.2 5.1,1.2 3.6,0 6.9,-0.7 5.9,-2.5 l -4.9,-4.2 z m 109.1,-36 c -0.1,0.9 -0.4,1.8 -0.9,2.4 l -0.1,0.1 -0.1,0.1 c -1,1.2 -2.3,2 -3.8,2.4 l 21.2,4.9 c 2,-0.3 3.7,-1.3 4.8,-2.5 1.3,-1.4 0.8,-3.1 -0.3,-4.3 l -20.8,-3.1 z M 32.221875,129.4 c -1.9,-0.9 -3.1,-2.3 -3.7,-3.8 -0.3,-0.5 -0.4,-1.1 -0.4,-1.7 l -18.2000008,1.4 c -2.2,0.9 -3.6,3.6 -2.1,5.6 1.1,1.2 2.4000008,1.9 3.8000008,2.3 l 20.4,-3 c 0.1,-0.3 0.1,-0.5 0.2,-0.8 z m 83.800005,18.4 c -1.6,1.4 -2,3.1 1.2,4 0.3,0.1 0.7,0.1 1.1,0.1 1,0 2.3,-0.2 3.5,-0.5 l 52.1,-28 c -0.9,-0.4 -1.8,-0.8 -2.6,-1.3 l -55.3,25.7 z m 31,5.3 c -0.2,1 0.6,1.9 2.1,2.3 0.4,0.1 0.9,0.1 1.3,0.1 1.3,0 2.6,-0.3 3.9,-0.8 l -0.1,-0.1 30.9,-27.5 c -0.9,-0.2 -1.7,-0.4 -2.6,-0.7 l -35.5,26.7 z m -21.8,-2.2 c -0.5,1 0.1,2.1 1.3,2.6 0.7,0.3 1.5,0.4 2.3,0.4 1.1,0 2.3,-0.2 3.5,-0.6 l 45.1,-28.4 c -0.8,-0.3 -1.5,-0.6 -2.2,-0.9 l -50,26.9 z m 10.6,1.5 c -0.5,1.2 0,2.3 1.8,2.4 0.2,0 0.4,0 0.6,0 2.4,0 4.7,-0.7 6.7,-1.5 l 36.4,-27.2 c -0.9,-0.3 -1.7,-0.5 -2.5,-0.8 l -43,27.1 z M 96.921875,137.9 c -3,1.5 -5.6,3.6 -0.6,6 0.4,0.2 2.6,0.4 6.100005,0.6 l 64.6,-25.1 c -0.7,-0.5 -1.3,-0.9 -1.9,-1.4 l -68.200005,19.9 z m -7.9,-7.5 c -2.3,1 -4.2,3.2 -2.8,5.3 1.3,1.9 3.2,2.4 5.4,2.4 0.3,0 0.6,0 0.9,0 l 71.500005,-20.8 c -0.8,-0.6 -1.5,-1.3 -2.2,-1.9 l -72.800005,15 z m -32.8,19.2 c 1.6,1.4 3.8,2 6.5,2 1,0 2,-0.1 3.1,-0.3 l 25,-8.8 c -0.2,-0.5 -0.2,-0.9 -0.2,-1.4 V 141 c -2.5,-0.2 -4.4,-1.1 -5.9,-2.7 l -29.3,9 c -0.4,0.9 0.1,1.7 0.8,2.3 z m 14.2,7.1 c 1.5,0 3.1,-0.2 4.6,-0.5 l 21.4,-9.2 c -0.9,-0.1 -1.1,-0.3 -1.4,-0.4 -1.8,-0.9 -3.1,-1.9 -3.8,-3 l -26.2,9.2 c -0.6,0.9 -0.6,1.8 0.3,2.6 1,0.9 2.9,1.3 5.1,1.3 z m 11.6,-33.5 c -1.6,1 -2.7,2.3 -2.3,3.5 0.9,2.3 2.7,3.2 4.7,3.5 l 76.400005,-15.8 c -0.7,-0.7 -1.4,-1.4 -1.9,-2.1 l -76.900005,10.9 z m -35.6,21.3 c 1,0.7 3.1,1.6 6.2,1.6 1.4,0 2.9,-0.2 4.6,-0.6 -0.2,0.1 -0.4,0.2 -0.5,0.2 l 27,-8.3 0,0 c -0.9,-1.3 -1.3,-2.9 -0.9,-4.4 h -0.1 l -36.8,8 c -1.1,1.2 -0.4,2.8 0.5,3.5 z m 161.600005,9 c 0.2,1 1.4,1.5 3.1,1.5 1.8,0 3.7,-1 4.9,-2.1 l 6.2,-23.5 h -5 l -9.2,24.1 z m 18.5,-3.7 -0.9,3.8 c 0.6,-0.2 1.3,-0.5 1.8,-0.8 -0.4,-1 -0.6,-2 -0.9,-3 z m -68.1,2.6 c -1.3,1.7 0,3.4 2.2,3.4 0.1,0 0.1,0 0.2,0 1.8,0 3.4,-0.4 4.8,-1.1 l 24.5,-26.6 c -1.2,-0.2 -2.3,-0.4 -3.5,-0.7 l -28.2,25 z m 51.3,12.2 c 2,0 3.9,-0.8 5,-1.9 l 1.6,-5.7 c -0.1,-0.1 -0.3,-0.2 -0.4,-0.2 -1.5,0.8 -3.2,1.4 -4.8,1.4 -1.3,0 -2.3,-0.2 -3.1,-0.5 l -1.8,5.7 c 0.7,0.8 2.4,1.2 3.5,1.2 z m 9.8,0.5 c 1.5,0 4.5,-0.7 5.9,-2.3 l 1.8,-6.7 c -2.5,1 -5.5,1.7 -7.3,1.7 -1,0 -1.8,-0.1 -2.5,-0.4 l -1.7,6.1 c 0.7,1.1 2.6,1.6 3.8,1.6 z m -2.4,-11.5 c 0.4,0.8 1.3,1.2 2.8,1.2 1.2,0 2.9,-0.3 4.5,-0.8 l 1.6,-6.7 c -0.4,-2.2 -0.6,-4.4 -0.6,-6.6 0,-3.8 0.5,-7.5 1.6,-11.1 h -3.6 l -6.3,24 z m -38.3,-0.8 c 0.5,-0.4 0.9,-0.7 1.3,-1 -1.4,1.3 0.2,3.4 1.9,3.4 2,0 4.3,-0.8 6.3,-2 l 13.6,-23.8 c -1.6,-0.1 -3.2,-0.2 -4.7,-0.3 l -18.4,23.7 z m 20.1,0.6 c 0.3,1 1.9,1.5 3,1.5 1.9,0 3.8,-0.7 5.1,-1.7 l 9.1,-23.7 h -5.8 l -11.4,23.9 z m -29.9,-0.8 c 0.3,-0.3 0.7,-0.5 1,-0.8 -1.4,1.3 -1.1,3.6 2.1,3.6 1.5,0 2.9,-0.5 4.3,-1.1 l 19.6,-25.4 c -1.6,-0.2 -3.1,-0.4 -4.6,-0.6 l -22.4,24.3 z m 34.1,-23.2 -13.9,24.4 c 0.1,1 1.4,1.4 2.5,1.4 1.8,0 4.1,-0.6 5.9,-1.8 l 11.4,-23.9 h -1.7 c -1.4,0 -2.8,0 -4.2,-0.1 z m -99.7,15.9 c -1.2,1.6 1.2,3.1 4.5,3.7 0.6,0.1 1.2,0.2 1.8,0.2 0.3,0 0.5,0 0.7,0 l 59.7,-27.8 c -0.7,-0.4 -1.4,-0.8 -2,-1.2 l -64.7,25.1 z m 126,19.6 c 0.6,0 2.5,-1.1 3.4,-1.4 l 0,0 c -1.8,-2.4 -3.2,-5 -4.4,-7.8 l -2.1,8 c 0.7,0.9 2.2,1.2 3.1,1.2 z M 74.621875,118.6 c 1.1,2.4 3.6,3.4 5.9,3.7 l 77.600005,-11 c -0.5,-0.7 -1,-1.4 -1.4,-2 l -79.300005,5 c -2.2,0.6 -3.8,2 -2.8,4.3 z m 3.1,-5.6 78.400005,-4.9 c -1.1,-1.9 -1.6,-3.3 -1.6,-3.5 l -0.3,-0.9 H 73.521875 c -1,2.8 -1.5,4 -1.3,5.1 0.3,2.3 2.9,3.6 5.5,4.2 z m 148.800005,54.3 c -0.5,-0.2 -1,-0.4 -1.4,-0.7 -2,1 -4.3,1.4 -5.6,1.4 -1.5,0 -3.3,-0.4 -4.7,-1.3 l -1.9,6.9 c 0.6,0.6 1.5,0.9 2.4,1 3.4,-2.5 7.3,-5.2 11.2,-7.3 z m -14.4,4.2 1.3,-4.6 c -1.1,0.4 -2.3,0.6 -3.6,0.6 -0.7,0 -2.9,-0.1 -4.5,-1.3 -0.2,0.1 -0.5,0.2 -0.7,0.3 l -2.2,7 c 0.8,0.7 2.1,1.1 3.1,1.1 1.4,0.1 4.7,-1.1 6.6,-3.1 z m -18.6,2.9 c 3.2,0 6.8,-1.5 8.2,-3.4 l 1.2,-3.9 c -1.2,0.3 -2.2,0.4 -3,0.4 -1.9,0 -3.5,-0.5 -4.7,-1.3 -0.5,0.2 -1,0.4 -1.4,0.5 l -3.1,6.1 c 0.3,1.1 1.6,1.6 2.8,1.6 z M 25.121875,113.7 c 0.1,-0.3 0.3,-0.6 0.4,-0.9 -0.9,-1.1 -1.7,-2.6 -2,-4.8 v -0.1 -0.2 -0.2 c 0,-1.5 0.4,-2.7 1,-3.7 H 0.82187424 c 0,0 -1.2,1.4 -0.7,5.3 0.3,2.6 1.69999996,4.5 3.79999996,5.6 l 21.2000008,-1 z m 3.3,8.3 c -2.2,-1.3 -3.1,-3.1 -3.4,-3.9 -0.3,-0.8 -0.4,-1.9 -0.3,-3 l -19.0000008,0.8 c -2.2,0.9 -3.4,3.1 -2.6,5.1 0.5,1.3 1.9,2.5 3.5,3.3 l 21.5000008,-1.7 c 0.2,-0.3 0.2,-0.5 0.3,-0.6 z m 1.4,-9.9 39.6,-2 c -0.1,-0.3 -0.2,-0.6 -0.2,-0.9 -0.2,-1.6 0.2,-3 0.9,-5 0.1,-0.2 0.1,-0.3 0.2,-0.5 h -25.6 l 0,0 0,0 h -16 c -1.1,0.5 -2.3,1.6 -2.3,3.7 0.2,1.2 0.5,3.9 3.4,4.7 z m 46.1,47.6 c 0.8,0.4 1.8,0.5 3,0.5 1.4,0 3,-0.3 4.7,-0.7 L 102.32188,150 c -1,-0.7 -1.7,-1.6 -2,-2.6 -0.700005,0 -1.200005,-0.1 -1.700005,-0.1 l -23,9.9 c -0.7,1 -0.6,1.9 0.3,2.5 z m -46.8,-46.4 c -1.6,1.1 -1.7,2.8 -1.3,3.8 0.4,1.1 1.6,2.9 5.1,3.1 l 38.5,-3.3 c 0,-0.8 0.3,-1.6 0.7,-2.3 0.1,-0.2 0.2,-0.4 0.4,-0.6 -1.1,-0.7 -1.9,-1.6 -2.5,-2.8 l -40.9,2.1 z m 152.600005,61.4 c 2.9,0 5.8,-1.4 7.9,-3 l 2.3,-4.5 c -0.9,0.2 -1.6,0.2 -2.1,0.2 -0.4,0 -2.9,0 -4.7,-1.3 -0.8,0.4 -1.8,0.7 -2.9,0.9 l -3.4,6.3 c 0.5,0.8 1.7,1.4 2.9,1.4 z m -45,-11.1 9.4,-6.3 c -0.4,-0.2 -0.7,-0.5 -1,-0.8 -2,0.8 -4.4,1.4 -7,1.4 -0.2,0 -0.5,0 -0.7,0 -0.7,0 -1.3,-0.1 -1.8,-0.3 l -9.4,6.5 c 0.6,0.5 1.9,0.8 3,0.8 2.6,-0.2 5.1,-0.4 7.5,-1.3 z m -21.5,1.5 c 0.5,0 1,0 1.4,0 4.7,0 8,-1.6 10.5,-3.3 -0.4,0.2 -0.6,0.5 -0.8,0.7 l 8.3,-5.7 c -0.4,-0.3 -0.7,-0.6 -1,-0.9 -1.6,0.5 -3.2,0.8 -4.7,0.8 -1.2,0 -2.4,-0.2 -3.4,-0.6 0,0 0,0 -0.1,0 -0.2,-0.1 -0.3,-0.2 -0.5,-0.2 l -12.2,7.7 c 0.2,0.9 1.2,1.5 2.5,1.5 z m -27.300005,-2.7 c 0.8,0.2 1.7,0.3 2.8,0.3 2.6,0 5.9,-0.6 8.4,-1.6 L 113.32188,153 c -0.4,-0.3 -0.6,-0.7 -0.8,-1 -0.9,0.2 -1.8,0.3 -2.7,0.3 -0.8,0 -1.6,-0.1 -2.4,-0.2 -1.5,-0.3 -2.9,-0.7 -3.9,-1.3 l -17.000005,8.7 c -1.1,1.1 -0.7,2.2 1.4,2.9 z m 15.100005,1.8 c 0.3,0 0.5,0 0.8,0 3.8,0 7.8,-1.3 10.4,-2.8 -0.2,0.1 -0.4,0.3 -0.6,0.4 l 10.2,-6.5 c -0.4,-0.3 -0.7,-0.7 -1,-1.1 -1.5,0.4 -3.1,0.7 -4.5,0.7 -0.6,0 -1.1,0 -1.6,-0.1 -0.1,0 -0.1,0 -0.2,0 -1,-0.3 -1.7,-0.6 -2.3,-1 l -14.500005,8.3 c -0.2,1.1 1.000005,2 3.300005,2.1 z m 64.9,0.1 c 1.3,0 4.5,-0.3 6.4,-1.3 l 4.5,-5.8 c -0.2,-0.1 -0.4,-0.3 -0.5,-0.4 -1.7,0.9 -3.9,1.7 -6.2,1.7 -1.5,0 -2.7,-0.4 -3.7,-1 l -4.1,5.1 c -0.1,1.1 1.8,1.7 3.6,1.7 z m 11.8,0 c 2.2,0 3.9,-0.6 5.3,-1.5 l 3.1,-5.6 c -0.1,-0.1 -0.3,-0.2 -0.4,-0.3 -1.9,0.8 -3.9,1.3 -5.7,1.3 -0.8,0 -1.5,-0.2 -2.2,-0.5 l -4.1,5.4 c 0.3,0.9 2.1,1.2 4,1.2 z m -37.2,0.4 c 1.6,0 5.6,-0.3 8.5,-1.7 l 6,-5.1 c -0.3,-0.2 -0.6,-0.5 -0.9,-0.7 -1.9,0.8 -3.9,1.3 -5.7,1.3 -0.6,0 -1.2,0 -1.8,-0.1 h -0.1 c -0.5,-0.1 -0.9,-0.2 -1.3,-0.4 l -7.9,5.3 c -0.1,0.9 1.6,1.4 3.2,1.4 z m 13.2,-0.1 c 1.4,0 4.2,-0.4 6.5,-1.5 l 4.6,-5.7 c -2,0.9 -4,1.4 -6.1,1.4 -0.1,0 -0.2,0 -0.2,0 -0.8,0 -1.6,-0.2 -2.3,-0.4 l -5.9,5 c 0.4,0.8 2.1,1.2 3.4,1.2 z"
   id="path6"
   style="fill:#a99a6f;stroke:none"
   inkscape:connector-curvature="0" />
</svg>